<?xml version="1.0" encoding="utf-8"?>
<!-- Generator: Adobe Illustrator 27.0.0, SVG Export Plug-In . SVG Version: 6.00 Build 0)  -->
<svg version="1.1" id="Layer_1" xmlns="http://www.w3.org/2000/svg" xmlns:xlink="http://www.w3.org/1999/xlink" x="0px" y="0px"
	 viewBox="0 0 900 200" style="enable-background:new 0 0 900 200;" xml:space="preserve">
<style type="text/css">
	.st0{fill:#FFFFFF;}
	.st1{fill:none;stroke:#FFFFFF;stroke-width:6;stroke-linecap:round;stroke-linejoin:round;stroke-miterlimit:10;}
	.st2{fill:none;stroke:#FFFFFF;stroke-width:7;stroke-linecap:round;stroke-linejoin:round;stroke-miterlimit:10;}
</style>
<polygon class="st0" points="34.99,153.78 34.99,45.1 51.12,45.1 105.04,113.65 105.04,0 122.55,17.32 122.55,85.11 171.45,85.11 
	171.45,44.46 187.5,44.46 187.5,153.78 172.43,153.78 172.43,104.16 121.82,104.16 121.82,200.49 105.04,183.7 105.04,137.73 
	51.04,69.86 51.04,153.78 "/>
<polyline class="st1" points="229.1,126.78 229.1,77.88 265.58,124.59 265.58,77.88 "/>
<polyline class="st1" points="331.62,77.53 298.79,77.53 298.79,100.65 298.79,102.16 298.79,126.78 331.62,126.78 "/>
<line class="st1" x1="298.79" y1="100.65" x2="324.69" y2="100.65"/>
<line class="st1" x1="357.37" y1="77.53" x2="394.31" y2="126.78"/>
<line class="st1" x1="392.86" y1="77.53" x2="355.56" y2="126.78"/>
<line class="st1" x1="435.96" y1="126.78" x2="435.96" y2="77.53"/>
<line class="st1" x1="414.23" y1="77.53" x2="453.86" y2="77.53"/>
<line class="st2" x1="484.14" y1="54.17" x2="484.14" y2="147.5"/>
<polyline class="st1" points="520.4,126.78 520.4,77.53 520.4,100.84 559.72,100.84 559.72,77.53 559.72,126.78 "/>
<polyline class="st1" points="624.34,77.21 591.51,77.21 591.51,100.33 591.51,101.84 591.51,126.47 624.34,126.47 "/>
<line class="st1" x1="591.51" y1="100.33" x2="617.41" y2="100.33"/>
<polyline class="st1" points="682.78,112.98 652.88,112.98 647.09,126.78 667.74,77.53 688.64,126.78 "/>
<polyline class="st1" points="714.01,75.34 714.01,126.47 746.12,126.47 "/>
<line class="st1" x1="778.12" y1="126.53" x2="778.12" y2="77.27"/>
<line class="st1" x1="756.39" y1="77.27" x2="796.02" y2="77.27"/>
<polyline class="st1" points="822.59,126.82 822.59,77.56 822.59,100.87 861.91,100.87 861.91,77.56 861.91,126.82 "/>
</svg>
